<svg preserveAspectRatio="xMidYMin meet" viewBox="0 0 868 589" fill="none" xmlns="http://www.w3.org/2000/svg" class="mb-3 w-64"><g clip-path="url(#clip0)"><path d="M228 426H27V588H228V426Z" fill="#E4E4E4"></path><path d="M144.5 541H110.5V587H144.5V541Z" fill="#CD3F45"></path><path d="M475.026 430.784L480.376 416.518L530.307 387.986L564.189 380.853L475.026 430.784Z" fill="#CD3F45"></path><path d="M291.352 430.784L286.002 416.518L236.071 387.986L202.189 380.853L291.352 430.784Z" fill="#CD3F45"></path><path d="M478.593 434.35H287.785L271.736 359.454H494.642L478.593 434.35Z" fill="#CD3F45"></path><path opacity="0.1" d="M478.593 434.35H287.785L271.736 359.454H494.642L478.593 434.35Z" fill="black"></path><path d="M479.484 429.892H286.893V588H479.484V429.892Z" fill="#CD3F45"></path><path d="M400.189 540.977H366.189V586.977H400.189V540.977Z" fill="#3F3D56"></path><path d="M867.543 588.19H0V586.008H867.939L867.543 588.19Z" fill="#3F3D56"></path><path d="M423.189 462.25H343.189V487.25H423.189V462.25Z" fill="white"></path><path d="M166.969 462.25H86.9692V487.25H166.969V462.25Z" fill="white"></path><path d="M762.591 575.991C752.708 571.723 750.463 556.174 758.735 549.285C767.007 542.396 781.893 547.417 784.302 557.91L775.082 491.957C772.962 476.794 771.266 459.844 780.43 447.579C789.01 436.093 805.774 432.413 819.231 437.358C832.689 442.302 842.635 454.635 846.855 468.337C851.075 482.039 850.079 496.929 846.394 510.785C842.709 524.64 836.449 537.654 830.118 550.518C823.631 563.699 815.763 577.983 801.896 582.835C788.649 587.47 762.591 575.991 762.591 575.991Z" fill="#F2F2F2"></path><path d="M805.904 436.107C811.963 455.016 814.848 474.798 814.441 494.65C814.06 514.414 810.51 533.989 803.925 552.627C800.178 563.202 795.429 573.394 789.744 583.065C789.498 583.521 789.439 584.054 789.579 584.552C789.718 585.05 790.046 585.474 790.493 585.735C790.939 585.996 791.47 586.074 791.973 585.951C792.475 585.828 792.911 585.515 793.187 585.078C803.394 567.636 810.646 548.627 814.651 528.82C818.715 508.919 819.528 488.491 817.06 468.33C815.671 457.031 813.224 445.887 809.75 435.047C808.966 432.614 805.115 433.654 805.904 436.107V436.107Z" fill="white"></path><path d="M756.732 551.712L788.292 584.878C790.064 586.741 792.881 583.918 791.111 582.058L759.551 548.893C757.779 547.03 754.962 549.853 756.732 551.712V551.712Z" fill="white"></path><path d="M642.525 569.379L626.23 569.377L618.477 506.522L642.528 506.523L642.525 569.379Z" fill="#FFB8B8"></path><path d="M646.681 585.175L594.137 585.173V584.509C594.137 581.823 594.666 579.163 595.694 576.682C596.722 574.201 598.228 571.946 600.127 570.047C602.026 568.148 604.281 566.641 606.762 565.614C609.244 564.586 611.903 564.057 614.589 564.057H614.59L646.682 564.058L646.681 585.175Z" fill="#2F2E41"></path><path d="M690.377 569.379L674.082 569.377L666.329 506.522L690.379 506.523L690.377 569.379Z" fill="#FFB8B8"></path><path d="M694.533 585.175L641.989 585.173V584.509C641.989 581.823 642.518 579.163 643.546 576.682C644.573 574.201 646.08 571.946 647.979 570.047C649.878 568.148 652.133 566.641 654.614 565.614C657.096 564.586 659.755 564.057 662.441 564.057H662.442L694.534 564.058L694.533 585.175Z" fill="#2F2E41"></path><path d="M701.313 315.357L697.422 546.232C697.409 546.963 697.246 547.684 696.943 548.349C696.639 549.014 696.202 549.61 695.658 550.098C695.114 550.587 694.475 550.958 693.781 551.188C693.087 551.419 692.353 551.503 691.624 551.437L672.555 549.704C671.305 549.59 670.134 549.037 669.252 548.143C668.37 547.249 667.833 546.072 667.736 544.82L656.572 400.806C656.546 400.468 656.391 400.153 656.14 399.925C655.889 399.697 655.56 399.573 655.22 399.58C654.881 399.587 654.557 399.723 654.315 399.961C654.073 400.199 653.931 400.52 653.918 400.859L648.338 548.169C648.286 549.543 647.704 550.844 646.713 551.798C645.722 552.752 644.401 553.285 643.025 553.285H622.575C621.221 553.285 619.918 552.768 618.932 551.84C617.946 550.913 617.35 549.644 617.268 548.292L602.952 314.028L688.021 292.76L701.313 315.357Z" fill="#2F2E41"></path><path d="M639.61 98.5679C657.64 98.5679 672.257 83.9515 672.257 65.9212C672.257 47.891 657.64 33.2745 639.61 33.2745C621.58 33.2745 606.963 47.891 606.963 65.9212C606.963 83.9515 621.58 98.5679 639.61 98.5679Z" fill="#FFB8B8"></path><path d="M600.039 322.225C599.473 321.679 599.022 321.025 598.71 320.303C598.399 319.581 598.234 318.804 598.225 318.018L596.023 160.584C595.891 152.575 598.3 144.73 602.905 138.177C607.51 131.623 614.074 126.698 621.653 124.108C624.712 110.232 640.99 108.494 650.48 108.702C652.848 108.753 655.17 109.374 657.247 110.513C659.324 111.652 661.096 113.275 662.413 115.245L669.216 125.449L684.21 134.238C691.149 138.288 696.622 144.438 699.84 151.8C703.058 159.162 703.854 167.356 702.114 175.2L699.806 185.7C691.677 222.863 692.45 261.422 702.063 298.23L706.708 315.941C706.95 316.863 706.968 317.83 706.76 318.761C706.552 319.692 706.125 320.559 705.514 321.291C704.903 322.023 704.126 322.599 703.247 322.969C702.368 323.34 701.414 323.495 700.463 323.422L695.068 323.006C693.668 322.9 692.349 322.304 691.345 321.322C690.34 320.341 689.714 319.037 689.575 317.639L688.683 308.711C688.666 308.547 688.589 308.395 688.467 308.284C688.345 308.174 688.186 308.112 688.021 308.112C687.856 308.112 687.697 308.174 687.575 308.284C687.453 308.395 687.376 308.547 687.36 308.711L686.496 317.355C686.35 318.815 685.672 320.171 684.592 321.164C683.511 322.157 682.103 322.718 680.636 322.74L604.298 323.915C604.267 323.915 604.235 323.916 604.203 323.916C602.647 323.919 601.152 323.312 600.039 322.225Z" fill="#3F3D56"></path><path d="M642.163 84.7394C642.297 89.3544 645.501 92.0244 649.435 94.4416C653.368 96.8589 657.967 97.907 662.472 98.9181C663.077 99.2394 663.754 99.3994 664.439 99.3826C665.124 99.3658 665.793 99.1728 666.381 98.8221C666.97 98.4715 667.458 97.9751 667.799 97.3808C668.14 96.7866 668.322 96.1145 668.327 95.4295L672.459 79.7139C673.92 74.6938 674.984 69.5662 675.64 64.3789C676.635 54.3977 674.269 43.6605 667.302 36.4438C660.336 29.2272 648.254 26.6636 639.905 32.2239C629.998 19.5701 584.712 47.527 595.883 56.3261C597.87 57.8915 600.908 55.9107 603.431 55.7188C605.954 55.5268 608.78 55.9705 610.383 57.9282C612.476 60.4858 611.564 64.2958 612.427 67.4863C612.784 68.609 613.359 69.6498 614.121 70.5489C614.882 71.448 615.813 72.1876 616.862 72.7249C617.91 73.2622 619.054 73.5866 620.228 73.6796C621.403 73.7725 622.584 73.632 623.704 73.2662C625.789 72.2385 627.751 70.9771 629.552 69.5064C631.487 68.2176 633.932 67.2654 636.11 68.0782C638.981 69.1496 640.001 72.6645 640.26 75.7179C640.698 78.7632 641.333 81.7768 642.163 84.7394Z" fill="#2F2E41"></path><path opacity="0.2" d="M634.539 172.236L629.222 237.367L601.309 305.156L642.514 238.696L634.539 172.236Z" fill="black"></path><path d="M594.782 330.401C596.306 329.178 597.543 327.635 598.406 325.882C599.269 324.129 599.737 322.208 599.777 320.254C599.817 318.3 599.429 316.362 598.639 314.574C597.849 312.787 596.676 311.195 595.204 309.91L612.987 265.865L588.793 270.751L575.615 311.827C573.62 314.443 572.654 317.7 572.9 320.981C573.145 324.262 574.586 327.338 576.949 329.628C579.311 331.917 582.432 333.26 585.718 333.403C589.005 333.545 592.23 332.477 594.782 330.401V330.401Z" fill="#FFB8B8"></path><path d="M593.487 310.976L579.791 306.04C578.38 305.524 577.214 304.498 576.521 303.165C575.829 301.831 575.66 300.287 576.049 298.836L598.642 216.134L602.087 141.389C602.191 139.133 602.742 136.92 603.709 134.879C604.675 132.838 606.038 131.009 607.718 129.5C609.398 127.99 611.361 126.829 613.493 126.085C615.625 125.341 617.884 125.028 620.139 125.165C622.393 125.301 624.598 125.885 626.624 126.881C628.651 127.878 630.46 129.267 631.945 130.968C633.43 132.67 634.562 134.65 635.275 136.793C635.988 138.936 636.268 141.199 636.098 143.451L629.946 225.295L601.159 307.331C600.722 308.57 599.891 309.632 598.792 310.353C597.692 311.073 596.387 311.412 595.076 311.318C594.533 311.276 593.999 311.161 593.487 310.976V310.976Z" fill="#3F3D56"></path><path d="M734.63 334.721C735.564 333.005 736.112 331.105 736.232 329.155C736.353 327.204 736.045 325.251 735.33 323.433C734.614 321.615 733.509 319.975 732.091 318.63C730.673 317.286 728.978 316.268 727.124 315.649L726.565 268.153L706.121 281.984L709.786 324.966C708.953 328.149 709.316 331.527 710.807 334.459C712.298 337.392 714.813 339.676 717.875 340.878C720.938 342.081 724.335 342.118 727.422 340.983C730.51 339.848 733.075 337.62 734.63 334.721L734.63 334.721Z" fill="#FFB8B8"></path><path d="M725.95 317.294L711.41 318.016C709.909 318.083 708.438 317.586 707.285 316.623C706.132 315.659 705.382 314.299 705.182 312.81L694.167 227.788L668.548 157.486C667.774 155.365 667.431 153.11 667.536 150.854C667.642 148.598 668.195 146.386 669.164 144.346C670.132 142.305 671.496 140.478 673.177 138.97C674.858 137.461 676.822 136.302 678.955 135.56C681.088 134.818 683.347 134.507 685.602 134.645C687.856 134.784 690.06 135.369 692.086 136.367C694.112 137.365 695.919 138.756 697.403 140.458C698.886 142.161 700.017 144.142 700.728 146.285L726.584 224.18L731.626 310.975C731.701 312.287 731.342 313.587 730.606 314.675C729.869 315.763 728.795 316.579 727.549 316.997C727.032 317.168 726.494 317.268 725.95 317.294V317.294Z" fill="#3F3D56"></path></g><defs><clipPath id="clip0"><rect width="867.939" height="588.5" fill="white"></rect></clipPath></defs></svg>