<svg preserveAspectRatio="xMidYMin meet" viewBox="0 0 132 152" fill="none" xmlns="http://www.w3.org/2000/svg">
    <path d="M65.7452 151.666C101.838 151.666 131.097 150.149 131.097 148.277C131.097 146.406 101.838 144.889 65.7452 144.889C29.6525 144.889 0.393555 146.406 0.393555 148.277C0.393555 150.149 29.6525 151.666 65.7452 151.666Z" fill="#F0F0F0"/>
    <path d="M75.6282 5.7106L75.3765 8.18274L123.053 13.0384L123.305 10.5662L75.6282 5.7106Z" fill="#E6E6E6"/>
    <path d="M62.4532 10.0542C65.0019 10.0542 67.0681 7.98802 67.0681 5.43931C67.0681 2.8906 65.0019 0.824463 62.4532 0.824463C59.9045 0.824463 57.8384 2.8906 57.8384 5.43931C57.8384 7.98802 59.9045 10.0542 62.4532 10.0542Z" fill="#E6E6E6"/>
    <path d="M75.6282 19.2652L75.3765 21.7373L123.053 26.5929L123.305 24.1208L75.6282 19.2652Z" fill="#E4E4E4"/>
    <path d="M62.4532 23.6086C65.0019 23.6086 67.0681 21.5425 67.0681 18.9938C67.0681 16.445 65.0019 14.3789 62.4532 14.3789C59.9045 14.3789 57.8384 16.445 57.8384 18.9938C57.8384 21.5425 59.9045 23.6086 62.4532 23.6086Z" fill="#E4E4E4"/>
    <path d="M75.6282 32.8196L75.3765 35.2917L123.053 40.1474L123.305 37.6752L75.6282 32.8196Z" fill="#CD3F45"/>
    <path d="M62.4532 37.163C65.0019 37.163 67.0681 35.0969 67.0681 32.5482C67.0681 29.9995 65.0019 27.9333 62.4532 27.9333C59.9045 27.9333 57.8384 29.9995 57.8384 32.5482C57.8384 35.0969 59.9045 37.163 62.4532 37.163Z" fill="#CD3F45"/>
    <path d="M41.7073 88.3145L42.0662 76.3752L40.4723 65.272L38.0876 65.4337L36.0811 77.1166L38.323 89.6428C37.8911 90.2351 37.663 90.9514 37.673 91.6843C37.683 92.4173 37.9304 93.1272 38.3783 93.7074C38.8262 94.2877 39.4502 94.7069 40.1567 94.9022C40.8632 95.0976 41.614 95.0584 42.2963 94.7906C42.9786 94.5228 43.5556 94.0408 43.9407 93.4171C44.3257 92.7933 44.4979 92.0615 44.4315 91.3316C44.3652 90.6016 44.0637 89.9129 43.5725 89.3688C43.0813 88.8248 42.4268 88.4548 41.7074 88.3145H41.7073Z" fill="#9E616A"/>
    <path d="M41.4059 116.328L34.7217 144.626L39.7581 144.984L49.4108 117.595L41.4059 116.328Z" fill="#9E616A"/>
    <path d="M53.3213 114.468L62.5461 142.043L67.0151 139.694L59.9363 111.971L53.3213 114.468Z" fill="#9E616A"/>
    <path d="M41.058 90.7174C41.058 90.7174 37.8551 94.2591 43.3821 101.058L36.2158 138.595L41.5408 140.532L51.2225 115.359L59.9361 137.143L66.7133 134.239L57.4554 101.058L58.4838 92.6072L55.9243 90.2421L41.058 90.7174Z" fill="#E4E4E4"/>
    <path d="M47.7095 52.5037C47.7095 52.5037 38.0173 56.3008 38.9855 62.1098L41.3697 85.0729L38.9175 93.0364C38.9175 93.0364 55.2718 95.6629 58.2626 92.6829L58.833 67.4348L59.9043 57.4553L54.7239 55.3597L53.4314 53.4427L47.7095 52.5037Z" fill="#3F3D56"/>
    <path d="M40.4728 59.2302L36.938 67.1891L42.1932 69.2242L40.4728 59.2302Z" fill="#3F3D56"/>
    <path d="M66.9683 91.6198L62.7058 68.8658L55.9246 68.2994L57.8359 79.7218L62.4533 92.6462C62.0718 93.2093 61.8685 93.8742 61.8698 94.5544C61.8711 95.2346 62.077 95.8987 62.4608 96.4603C62.8445 97.0219 63.3883 97.4551 64.0215 97.7036C64.6547 97.9521 65.348 98.0043 66.0113 97.8535C66.6746 97.7027 67.2772 97.3559 67.7407 96.8581C68.2043 96.3603 68.5073 95.7345 68.6106 95.0622C68.7138 94.3899 68.6123 93.702 68.3194 93.0881C68.0265 92.4742 67.5558 91.9626 66.9683 91.6198V91.6198Z" fill="#9E616A"/>
    <path d="M52.1929 60.2364L56.1038 71.3394L63.6741 70.3393C63.6741 70.3393 65.3325 60.0621 59.9045 57.4553L52.1929 60.2364Z" fill="#3F3D56"/>
    <path d="M57.5036 44.0338C57.3064 53.5389 42.6654 51.9158 44.6055 42.5775C46.0993 35.1462 57.7031 36.467 57.5036 44.0338Z" fill="#9E616A"/>
    <path d="M53.9359 35.2911C49.3458 36.0736 42.2369 34.2332 42.3764 41.4198C41.9056 42.1236 41.3882 42.8946 41.7225 43.7772C43.3417 45.7518 44.1877 48.8097 46.3014 50.1966C48.1852 50.1826 50.6443 50.4457 51.9077 48.8021C52.4445 47.4545 51.4948 45.8116 52.3045 44.5468C53.3661 44.2081 54.4023 45.567 54.817 43.6317C54.7589 43.1619 54.8285 42.6852 55.0184 42.2516C55.2084 41.818 55.5117 41.4437 55.8965 41.168C57.5587 39.2645 56.426 35.7571 53.9359 35.2911Z" fill="#3F3D56"/>
    <path d="M33.4172 143.921L41.3325 143.921H41.3328C42.6705 143.921 43.9535 144.452 44.8995 145.398C45.8454 146.344 46.3769 147.627 46.377 148.965V149.129L33.4175 149.129L33.4172 143.921Z" fill="#2F2E41"/>
    <path d="M60.6072 140.504L68.3446 138.836L68.3449 138.836C69.6526 138.554 71.0188 138.803 72.1428 139.528C73.2669 140.253 74.0568 141.396 74.3388 142.703L74.3734 142.864L61.7051 145.595L60.6072 140.504Z" fill="#2F2E41"/>
    <path d="M93.49 145.884H96.0474L97.2639 136.02H93.4895L93.49 145.884Z" fill="#FFB6B6"/>
    <path d="M92.8379 145.049L97.874 145.049H97.8742C98.7253 145.049 99.5416 145.387 100.143 145.989C100.745 146.591 101.083 147.407 101.084 148.258V148.362L92.838 148.363L92.8379 145.049Z" fill="#2F2E41"/>
    <path d="M80.4197 145.884H82.9771L84.1936 136.02H80.4192L80.4197 145.884Z" fill="#FFB6B6"/>
    <path d="M79.7676 145.049L84.8037 145.049H84.8039C85.655 145.049 86.4713 145.387 87.0732 145.989C87.675 146.591 88.0132 147.407 88.0132 148.258V148.362L79.7677 148.363L79.7676 145.049Z" fill="#2F2E41"/>
    <path d="M110.281 35.9692C110.281 35.54 110.186 35.1161 110.003 34.7279C109.82 34.3398 109.553 33.9972 109.221 33.7246C108.89 33.452 108.502 33.2562 108.086 33.1514C107.67 33.0466 107.235 33.0353 106.814 33.1184C106.393 33.2015 105.996 33.3769 105.651 33.632C105.305 33.887 105.021 34.2154 104.818 34.5935C104.615 34.9716 104.498 35.39 104.476 35.8186C104.454 36.2473 104.527 36.6755 104.69 37.0724L98.8136 46.3701L95.1553 53.7428L98.1742 56.4222L100.497 53.977L108.096 38.7802C108.721 38.6209 109.274 38.2581 109.67 37.7491C110.066 37.2401 110.281 36.6139 110.281 35.9692V35.9692Z" fill="#FFB6B6"/>
    <path d="M79.7839 66.4666L74.0235 65.5739L72.6513 75.9951L65.175 92.0833C64.6874 92.3872 64.3008 92.8289 64.0641 93.3525C63.8274 93.8761 63.7513 94.4581 63.8453 95.025C63.9394 95.5919 64.1993 96.1181 64.5924 96.5373C64.9855 96.9564 65.494 97.2496 66.0536 97.3798C66.6133 97.51 67.199 97.4714 67.7367 97.2688C68.2744 97.0662 68.74 96.7087 69.0746 96.2416C69.4092 95.7745 69.5978 95.2186 69.6165 94.6443C69.6353 94.07 69.4834 93.503 69.18 93.015L76.9969 78.8998L79.7839 66.4666Z" fill="#FFB6B6"/>
    <path d="M82.9762 83.8273C82.9762 83.8273 77.9106 88.5114 78.5543 100.289L79.9734 118.485L79.6155 143.848L84.8184 143.439L89.3638 100.933L93.7206 118.361L92.1566 141.575L97.1683 141.692L102.434 115.456L101.186 96.0084L99.0894 83.8273H82.9762Z" fill="#2F2E41"/>
    <path d="M88.3954 56.3976L76.2932 59.7862L82.4467 78.2231L81.527 85.2763L100.187 85.3972L95.8654 71.7645C95.8654 71.7645 98.2906 66.7774 95.5214 63.2818L88.3954 56.3976Z" fill="#E4E4E4"/>
    <path d="M86.9431 59.302L88.3954 56.3975C88.3954 56.3975 88.3485 55.6676 91.7605 55.3064L95.764 51.3273L99.4285 54.9795L93.2362 64.1429L86.9431 59.302Z" fill="#E4E4E4"/>
    <path d="M81.1344 62.2064C81.1344 62.2064 76.7776 57.3656 74.3571 59.786C71.9367 62.2064 73.1777 69.9029 73.1777 69.9029L80.7165 71.0727L81.1344 62.2064Z" fill="#E4E4E4"/>
    <path d="M83.3439 43.5985C90.7636 43.6318 90.7629 54.9132 83.3435 54.9455C75.9242 54.9122 75.9248 43.6308 83.3439 43.5985Z" fill="#FFB6B6"/>
    <path d="M84.1703 48.8971C85.1732 49.4877 86.2154 50.0918 87.3724 50.2185C88.5294 50.3451 89.8393 49.8581 90.3035 48.7908C90.4486 48.421 90.5256 48.028 90.5308 47.6307C90.6327 45.6036 89.9313 43.6181 88.5787 42.1047C87.8999 41.363 87.0691 40.7763 86.143 40.3847C85.2169 39.9931 84.2172 39.8059 83.2122 39.8357C81.295 39.9191 79.5234 40.8266 77.8222 41.7144C76.2578 42.5308 74.6059 43.4305 73.7559 44.9769C72.4963 47.2685 73.4144 50.0741 73.6591 52.6776C73.8308 54.6189 73.6095 56.5748 73.0086 58.4287C72.4077 60.2826 71.4395 61.9964 70.1616 63.4679L80.7183 64.4681C81.9972 64.6568 83.2978 64.6435 84.5726 64.4289C85.6591 64.1862 86.6596 63.6537 87.4676 62.8878C88.2756 62.122 88.861 61.1515 89.1615 60.0795C89.4621 59.0076 89.4665 57.8742 89.1743 56.7999C88.8822 55.7257 88.3044 54.7506 87.5024 53.9785C86.0039 52.5359 83.5942 51.5146 83.535 49.4354" fill="#2F2E41"/>
</svg>