<svg width="288" height="603" viewBox="0 0 288 603" fill="none" xmlns="http://www.w3.org/2000/svg">
<path opacity="0.1" d="M288 601.322C278.923 592.42 269.873 582.555 260.911 571.797C207.259 507.392 156.872 411.122 122.514 298.246C88.9774 188.07 76.9379 82.5207 84.4442 0H83.4401C75.9365 82.6641 88.0046 188.308 121.557 298.538C161.835 430.864 224.142 540.451 288 602.721V601.322Z" fill="black"/>
<path opacity="0.1" d="M288 501.921C241.255 462.012 194.063 411.731 150.463 353.432C79.7994 258.945 32.0064 161.36 11.8336 79.9988C4.63097 50.9493 0.955684 23.9932 1.00625 0H0.00624984C-0.18596 91.5975 53.6899 225.702 149.662 354.031C193.5 412.649 240.977 463.182 288 503.235V501.921Z" fill="black"/>
</svg>
