<svg width="224" height="19" viewBox="0 0 224 19" fill="none" xmlns="http://www.w3.org/2000/svg">
<path d="M13.0928 3.66612C17.4404 1.97484 21.9814 0.208153 28.29 0.208153C34.5195 0.208153 39.0234 1.9596 43.3564 3.64418C47.3701 5.20486 51.2363 6.70815 56.1895 6.70815C61.0723 6.70815 64.9004 5.21892 68.8926 3.66612C73.2402 1.97484 77.7812 0.208153 84.0898 0.208153C90.3193 0.208153 94.8232 1.9596 99.1562 3.64418C103.17 5.20486 107.036 6.70815 111.989 6.70815C116.872 6.70815 120.7 5.21892 124.692 3.66612C129.04 1.97484 133.581 0.208153 139.89 0.208153C146.119 0.208153 150.623 1.9596 154.956 3.64418C158.97 5.20486 162.836 6.70815 167.789 6.70815C172.672 6.70815 176.5 5.21892 180.492 3.66612C184.84 1.97484 189.381 0.208153 195.689 0.208153C201.919 0.208153 206.423 1.9596 210.756 3.64418C214.77 5.20486 218.636 6.70815 223.589 6.70815V18.6082H0.389648V6.70815C5.27246 6.70815 9.10059 5.21892 13.0928 3.66612Z" fill="#F1868A"/>
</svg>
