<svg width="90" height="90" viewBox="0 0 90 90" fill="none" xmlns="http://www.w3.org/2000/svg">
<g clip-path="url(#clip0)">
<g filter="url(#filter0_d)">
<path d="M0 0V90.7H90.7V0H0ZM79.4 60.4C79.4 63.2 77.9 65.9 75.4 67.3L49.4 82.3C46.9 83.7 43.9 83.7 41.4 82.3L15.4 67.3C12.9 65.9 11.4 63.2 11.4 60.4V30.4C11.4 27.6 12.9 24.9 15.4 23.5L41.4 8.5C43.9 7.1 46.9 7.1 49.4 8.5L75.4 23.5C77.9 24.9 79.4 27.6 79.4 30.4V60.4Z" fill="white"/>
</g>
</g>
<defs>
<filter id="filter0_d" x="-4" y="0" width="98.7" height="98.7" filterUnits="userSpaceOnUse" color-interpolation-filtros="sRGB">
<feFlood flood-opacity="0" result="BackgroundImageFix"/>
<feColorMatrix in="SourceAlpha" type="matrix" values="0 0 0 0 0 0 0 0 0 0 0 0 0 0 0 0 0 0 127 0"/>
<feOffset dy="4"/>
<feGaussianBlur stdDeviation="2"/>
<feColorMatrix type="matrix" values="0 0 0 0 0 0 0 0 0 0 0 0 0 0 0 0 0 0 0.15 0"/>
<feBlend mode="normal" in2="BackgroundImageFix" result="effect1_dropShadow"/>
<feBlend mode="normal" in="SourceGraphic" in2="effect1_dropShadow" result="shape"/>
</filter>
<clipPath id="clip0">
<rect width="90.7" height="90.7" fill="white"/>
</clipPath>
</defs>
</svg>
